name Run_40002_GRF.mot
datacolumns 19
datarows 31
range 2.395 2.425
endheader
time	     ground_force_vx	     ground_force_vy	     ground_force_vz	     ground_force_px	     ground_force_py	     ground_force_pz	   l_ground_force_vx	   l_ground_force_vy	   l_ground_force_vz	   l_ground_force_px	   l_ground_force_py	   l_ground_force_pz	     ground_torque_x	     ground_torque_y	     ground_torque_z	   l_ground_torque_x	   l_ground_torque_y	   l_ground_torque_z	
2.395	        142.00865200	       1356.97460900	         49.00901800	          0.78812100	          0.00000000	         -0.33045300	          0.00000000	          0.00000000	          0.00000000	          0.00000000	          0.00000000	          0.00000000	          0.00000000	         -2.68833700	          0.00000000	          0.00000000	          0.00000000	          0.00000000	
2.396	        146.77658100	       1334.92199700	         48.87645000	          0.78472000	          0.00000000	         -0.33056500	          0.00000000	          0.00000000	          0.00000000	          0.00000000	          0.00000000	          0.00000000	          0.00000000	         -2.75118400	          0.00000000	          0.00000000	          0.00000000	          0.00000000	
2.397	        151.54522700	       1312.51770000	         48.70124400	          0.78125700	          0.00000000	         -0.33068000	          0.00000000	          0.00000000	          0.00000000	          0.00000000	          0.00000000	          0.00000000	          0.00000000	         -2.80976800	          0.00000000	          0.00000000	          0.00000000	          0.00000000	
2.398	        156.29280100	       1289.78833000	         48.48292900	          0.77773500	          0.00000000	         -0.33079800	          0.00000000	          0.00000000	          0.00000000	          0.00000000	          0.00000000	          0.00000000	          0.00000000	         -2.86384400	          0.00000000	          0.00000000	          0.00000000	          0.00000000	
2.399	        160.99507100	       1266.76318400	         48.22127500	          0.77416100	          0.00000000	         -0.33091800	          0.00000000	          0.00000000	          0.00000000	          0.00000000	          0.00000000	          0.00000000	          0.00000000	         -2.91318200	          0.00000000	          0.00000000	          0.00000000	          0.00000000	
2.4	        165.62553400	       1243.47363300	         47.91631700	          0.77053900	          0.00000000	         -0.33103800	          0.00000000	          0.00000000	          0.00000000	          0.00000000	          0.00000000	          0.00000000	          0.00000000	         -2.95756900	          0.00000000	          0.00000000	          0.00000000	          0.00000000	
2.401	        170.15583800	       1219.95263700	         47.56835600	          0.76687900	          0.00000000	         -0.33115900	          0.00000000	          0.00000000	          0.00000000	          0.00000000	          0.00000000	          0.00000000	          0.00000000	         -2.99681300	          0.00000000	          0.00000000	          0.00000000	          0.00000000	
2.402	        174.55606100	       1196.23449700	         47.17794400	          0.76318700	          0.00000000	         -0.33127800	          0.00000000	          0.00000000	          0.00000000	          0.00000000	          0.00000000	          0.00000000	          0.00000000	         -3.03073900	          0.00000000	          0.00000000	          0.00000000	          0.00000000	
2.403	        178.79521200	       1172.35424800	         46.74589900	          0.75947300	          0.00000000	         -0.33139400	          0.00000000	          0.00000000	          0.00000000	          0.00000000	          0.00000000	          0.00000000	          0.00000000	         -3.05919100	          0.00000000	          0.00000000	          0.00000000	          0.00000000	
2.404	        182.84167500	       1148.34668000	         46.27327700	          0.75574500	          0.00000000	         -0.33150800	          0.00000000	          0.00000000	          0.00000000	          0.00000000	          0.00000000	          0.00000000	          0.00000000	         -3.08203600	          0.00000000	          0.00000000	          0.00000000	          0.00000000	
2.405	        186.66383400	       1124.24633800	         45.76139100	          0.75201400	          0.00000000	         -0.33161600	          0.00000000	          0.00000000	          0.00000000	          0.00000000	          0.00000000	          0.00000000	          0.00000000	         -3.09915900	          0.00000000	          0.00000000	          0.00000000	          0.00000000	
2.406	        190.23068200	       1100.08654800	         45.21176900	          0.74828900	          0.00000000	         -0.33171900	          0.00000000	          0.00000000	          0.00000000	          0.00000000	          0.00000000	          0.00000000	          0.00000000	         -3.11046800	          0.00000000	          0.00000000	          0.00000000	          0.00000000	
2.407	        193.51234400	       1075.89917000	         44.62616000	          0.74458000	          0.00000000	         -0.33181600	          0.00000000	          0.00000000	          0.00000000	          0.00000000	          0.00000000	          0.00000000	          0.00000000	         -3.11589100	          0.00000000	          0.00000000	          0.00000000	          0.00000000	
2.408	        196.48085000	       1051.71411100	         44.00651200	          0.74089700	          0.00000000	         -0.33190400	          0.00000000	          0.00000000	          0.00000000	          0.00000000	          0.00000000	          0.00000000	          0.00000000	         -3.11537900	          0.00000000	          0.00000000	          0.00000000	          0.00000000	
2.409	        199.11068700	       1027.55920400	         43.35495000	          0.73725000	          0.00000000	         -0.33198400	          0.00000000	          0.00000000	          0.00000000	          0.00000000	          0.00000000	          0.00000000	          0.00000000	         -3.10890400	          0.00000000	          0.00000000	          0.00000000	          0.00000000	
2.41	        201.37939500	       1003.45977800	         42.67375600	          0.73364600	          0.00000000	         -0.33205500	          0.00000000	          0.00000000	          0.00000000	          0.00000000	          0.00000000	          0.00000000	          0.00000000	         -3.09645900	          0.00000000	          0.00000000	          0.00000000	          0.00000000	
2.411	        203.26815800	        979.43872100	         41.96535100	          0.73009300	          0.00000000	         -0.33211700	          0.00000000	          0.00000000	          0.00000000	          0.00000000	          0.00000000	          0.00000000	          0.00000000	         -3.07805900	          0.00000000	          0.00000000	          0.00000000	          0.00000000	
2.412	        204.76225300	        955.51660200	         41.23226200	          0.72660000	          0.00000000	         -0.33216800	          0.00000000	          0.00000000	          0.00000000	          0.00000000	          0.00000000	          0.00000000	          0.00000000	         -3.05374000	          0.00000000	          0.00000000	          0.00000000	          0.00000000	
2.413	        205.85139500	        931.71160900	         40.47710800	          0.72317100	          0.00000000	         -0.33221000	          0.00000000	          0.00000000	          0.00000000	          0.00000000	          0.00000000	          0.00000000	          0.00000000	         -3.02355900	          0.00000000	          0.00000000	          0.00000000	          0.00000000	
2.414	        206.52999900	        908.03973400	         39.70256000	          0.71981200	          0.00000000	         -0.33224300	          0.00000000	          0.00000000	          0.00000000	          0.00000000	          0.00000000	          0.00000000	          0.00000000	         -2.98759400	          0.00000000	          0.00000000	          0.00000000	          0.00000000	
2.415	        206.79736300	        884.51538100	         38.91133100	          0.71652600	          0.00000000	         -0.33226500	          0.00000000	          0.00000000	          0.00000000	          0.00000000	          0.00000000	          0.00000000	          0.00000000	         -2.94594200	          0.00000000	          0.00000000	          0.00000000	          0.00000000	
2.416	        206.65756200	        861.15136700	         38.10612900	          0.71331500	          0.00000000	         -0.33227900	          0.00000000	          0.00000000	          0.00000000	          0.00000000	          0.00000000	          0.00000000	          0.00000000	         -2.89872100	          0.00000000	          0.00000000	          0.00000000	          0.00000000	
2.417	        206.11940000	        837.95929000	         37.28965400	          0.71018100	          0.00000000	         -0.33228500	          0.00000000	          0.00000000	          0.00000000	          0.00000000	          0.00000000	          0.00000000	          0.00000000	         -2.84606500	          0.00000000	          0.00000000	          0.00000000	          0.00000000	
2.418	        205.19609100	        814.95013400	         36.46455800	          0.70712500	          0.00000000	         -0.33228200	          0.00000000	          0.00000000	          0.00000000	          0.00000000	          0.00000000	          0.00000000	          0.00000000	         -2.78813000	          0.00000000	          0.00000000	          0.00000000	          0.00000000	
2.419	        203.90490700	        792.13403300	         35.63342700	          0.70414400	          0.00000000	         -0.33227200	          0.00000000	          0.00000000	          0.00000000	          0.00000000	          0.00000000	          0.00000000	          0.00000000	         -2.72508600	          0.00000000	          0.00000000	          0.00000000	          0.00000000	
2.42	        202.26667800	        769.52105700	         34.79875600	          0.70123700	          0.00000000	         -0.33225500	          0.00000000	          0.00000000	          0.00000000	          0.00000000	          0.00000000	          0.00000000	          0.00000000	         -2.65712400	          0.00000000	          0.00000000	          0.00000000	          0.00000000	
2.421	        200.30523700	        747.12109400	         33.96293300	          0.69840200	          0.00000000	         -0.33223200	          0.00000000	          0.00000000	          0.00000000	          0.00000000	          0.00000000	          0.00000000	          0.00000000	         -2.58444600	          0.00000000	          0.00000000	          0.00000000	          0.00000000	
2.422	        198.04682900	        724.94403100	         33.12822700	          0.69563300	          0.00000000	         -0.33220300	          0.00000000	          0.00000000	          0.00000000	          0.00000000	          0.00000000	          0.00000000	          0.00000000	         -2.50727200	          0.00000000	          0.00000000	          0.00000000	          0.00000000	
2.423	        195.51953100	        702.99993900	         32.29676100	          0.69292700	          0.00000000	         -0.33216900	          0.00000000	          0.00000000	          0.00000000	          0.00000000	          0.00000000	          0.00000000	          0.00000000	         -2.42583600	          0.00000000	          0.00000000	          0.00000000	          0.00000000	
2.424	        192.75251800	        681.29901100	         31.47049900	          0.69027800	          0.00000000	         -0.33213000	          0.00000000	          0.00000000	          0.00000000	          0.00000000	          0.00000000	          0.00000000	          0.00000000	         -2.34038400	          0.00000000	          0.00000000	          0.00000000	          0.00000000	
2.425	        189.77551300	        659.85137900	         30.65125800	          0.68768000	          0.00000000	         -0.33208700	          0.00000000	          0.00000000	          0.00000000	          0.00000000	          0.00000000	          0.00000000	          0.00000000	         -2.25117600	          0.00000000	          0.00000000	          0.00000000	          0.00000000	
